<svg xmlns="http://www.w3.org/2000/svg" viewBox="0 0 140 70">
    <style>
        .st0{fill:#e9eaec}.st1{fill:#edeeef}.st2{fill:none;stroke:#3a474d;stroke-width:1.4;stroke-linecap:round;stroke-linejoin:round;stroke-miterlimit:10}.st3{opacity:.15;fill:#1c739b}.st4{fill:none;stroke:#3a474d;stroke-width:2;stroke-linecap:round;stroke-linejoin:round;stroke-miterlimit:10}.st5{opacity:.15}.st6,.st7{fill:#1c739b}.st7{stroke:#5c7177;stroke-width:2}.st10,.st11,.st12,.st13,.st7,.st8,.st9{stroke-linecap:round;stroke-linejoin:round;stroke-miterlimit:10}.st8{stroke:#5c7177;stroke-width:2;fill:#43a7c8}.st10,.st9{fill:none}.st9{opacity:.15;stroke:#1c739b;stroke-width:4}.st10,.st11,.st12,.st13{stroke:#5c7177;stroke-width:2}.st11{fill:#fff}.st12{fill:#f8df92}.st13{fill:#95c0d3}.st14{fill:#fff}.st15{fill:#fdd8bd}.st16{fill:#5c7177}.st17{fill:#ee6939;stroke-width:2;stroke-linecap:round;stroke-linejoin:round;stroke-miterlimit:10}.st17,.st18,.st19,.st20,.st21,.st22{stroke:#5c7177}.st18,.st19,.st20,.st21,.st22,.st23{stroke-width:2;stroke-linecap:round;stroke-linejoin:round;stroke-miterlimit:10}.st18{fill:#f9cf48}.st19{fill:#fdd8bd}.st20{fill:#f7a872}.st21{fill:#dd9dc6}.st22{fill:#6d6354}.st23{fill:#fff;stroke:#3a474d}.st24{clip-path:url(#SVGID_2_)}.st25{stroke:#3a474d;stroke-width:2;stroke-linecap:round;stroke-linejoin:round;stroke-miterlimit:10}.st25,.st26{fill:#43a7c8}.st27{opacity:.3;fill:#fff}.st28{fill:#3a474d}.st29{fill:#f9cf48}.st29,.st30,.st31{stroke:#3a474d;stroke-width:2;stroke-linecap:round;stroke-linejoin:round;stroke-miterlimit:10}.st30{fill:#60c3ab}.st31{fill:#ee6939}.st32{fill:url(#SVGID_5_)}.st33{fill:#f79c81}.st34{fill:none;stroke:#459cbe;stroke-miterlimit:10}.st35{opacity:.2;fill:#fff}.st36,.st37{fill:#43a7c8;stroke:#3a474d;stroke-width:1.4;stroke-linecap:round;stroke-linejoin:round;stroke-miterlimit:10}.st37{fill:#fff}.st38{opacity:.15;fill:#3a474d}.st39{fill:#f9cf48}.st40,.st41{fill:none}.st40,.st41,.st42{stroke-miterlimit:10}.st40{stroke-linecap:round;stroke-linejoin:round;stroke:#00aeef}.st41{stroke:#fff}.st42,.st43{stroke-linecap:round;stroke-linejoin:round;stroke:#3a474d}.st42{fill:#3a474d;stroke-width:1.4}.st43{stroke-miterlimit:10}.st43,.st44,.st45{fill:none}.st44,.st45,.st46{stroke:#3a474d;stroke-miterlimit:10}.st44{stroke-linecap:round;stroke-linejoin:round;stroke-width:3}.st45{stroke-width:2}.st46{fill:#fff;stroke-width:3;stroke-linecap:round;stroke-linejoin:round}.st47,.st48,.st49{fill:none;stroke-miterlimit:10}.st47{stroke-width:3;stroke-linecap:round;stroke-linejoin:round;stroke:#41494e}.st48{stroke:#679bbb}.st49{stroke:#41494e;stroke-width:2;stroke-linecap:round;stroke-linejoin:round}.st50{opacity:.3;stroke:#272425;stroke-width:12}.st50,.st51,.st52,.st53,.st54{fill:none;stroke-miterlimit:10}.st51{opacity:.2;stroke:#272425}.st52{stroke:#467398}.st52,.st53,.st54{stroke-linecap:round}.st53{stroke:#85c2ab}.st54{stroke:#fff}.st55,.st56{opacity:.2;fill:#467398}.st56{opacity:.15}.st57{fill:#fff;stroke:#41494e;stroke-width:2;stroke-linecap:round;stroke-linejoin:round;stroke-miterlimit:10}.st58{fill:#fcf2cd}.st59{clip-path:url(#SVGID_9_)}.st60{fill:#8cadba}.st61{fill:#e9e9ec}.st62{fill:#f3d7bd}.st63{fill:#41494e}.st64{fill:#e19b81}.st65{fill:#f7e19b;stroke:#41494e;stroke-width:2;stroke-linecap:round;stroke-linejoin:round;stroke-miterlimit:10}.st66{fill:#cbbedc}.st67{fill:#b7987e;stroke:#41494e;stroke-width:2;stroke-linecap:round;stroke-linejoin:round;stroke-miterlimit:10}.st68{fill:#f7e19b}.st69{opacity:.15;fill:#fff}.st70{fill:#41494e}.st70,.st71{stroke:#41494e;stroke-width:2;stroke-linecap:round;stroke-linejoin:round;stroke-miterlimit:10}.st71,.st72{fill:#6ca5c5}.st73{fill:#eece54;stroke-width:2}.st73,.st74,.st75{stroke:#41494e;stroke-linecap:round;stroke-linejoin:round;stroke-miterlimit:10}.st74{fill:#6ca5c5;stroke-width:1.4}.st75{fill:#decd86;stroke-width:2}.st76{fill:#85c1aa}.st77,.st78{stroke-linecap:round;stroke-linejoin:round;stroke-miterlimit:10}.st77{opacity:.15;fill:none;stroke:#467398;stroke-width:3}.st78{fill:#e1b165;stroke:#41494e;stroke-width:2}.st79{opacity:.9;fill:#fff}.st79,.st80,.st81,.st82{stroke:#41494e;stroke-width:2;stroke-linecap:round;stroke-linejoin:round;stroke-miterlimit:10}.st80{opacity:.2;fill:none}.st81{fill:#85c1aa}.st82{fill:#d0d0d4}.st83{fill:#e9e5f1}.st84{fill:#d2693e;stroke:#41494e;stroke-width:2;stroke-linecap:round;stroke-linejoin:round;stroke-miterlimit:10}.st85{opacity:.61;fill:#fff}.st86{fill:none;stroke:#41494e;stroke-linecap:round;stroke-linejoin:round;stroke-miterlimit:10}.st86,.st87{stroke-width:1.4}.st87,.st88{stroke:#41494e;stroke-linecap:round;stroke-linejoin:round;stroke-miterlimit:10}.st87{fill:#fff}.st88{fill:#a1bfd1;stroke-width:2}.st89{clip-path:url(#SVGID_11_)}.st90{fill:#467398;stroke:#41494e;stroke-width:2}.st90,.st91,.st92{stroke-linecap:round;stroke-linejoin:round;stroke-miterlimit:10}.st91{opacity:.15;fill:none;stroke:#467398;stroke-width:4}.st92{fill:#a1bfd1;stroke:#41494e;stroke-width:2}.st92,.st93,.st94,.st95,.st96{clip-path:url(#SVGID_11_)}.st93{stroke:#41494e;stroke-width:2;stroke-linecap:round;stroke-linejoin:round;stroke-miterlimit:10;fill:#467398}.st94{fill:#fff}.st95{fill:#f3d7bd}.st96{fill:#fff}.st96,.st97,.st98{stroke:#41494e;stroke-width:2;stroke-linecap:round;stroke-linejoin:round;stroke-miterlimit:10}.st97{clip-path:url(#SVGID_11_);fill:none}.st98{fill:#d2693e}.st100,.st98,.st99{clip-path:url(#SVGID_11_)}.st99{stroke:#41494e;stroke-width:2;stroke-linecap:round;stroke-linejoin:round;stroke-miterlimit:10;fill:#eece54}.st100{fill:#41494e}.st101,.st102,.st103{stroke-width:2;stroke-linecap:round;stroke-linejoin:round;stroke-miterlimit:10}.st101{clip-path:url(#SVGID_11_);stroke:#41494e;fill:#f3d7bd}.st102,.st103{fill:none}.st102{opacity:.1;stroke:#41494e}.st103{stroke:#85c1aa}.st104{fill:#467398}.st105,.st106{fill:none;stroke-linecap:round;stroke-linejoin:round;stroke-miterlimit:10}.st105{opacity:.15;stroke-width:2;stroke:#467398}.st106{stroke:#41494e}.st107{fill:#eece54}.st108,.st109{stroke-linejoin:round}.st108{stroke:#41494e;stroke-width:2;stroke-linecap:round;stroke-miterlimit:10;fill:#f1de95}.st109{fill:none}.st109,.st110,.st111{stroke:#000;stroke-miterlimit:10}.st110{fill:none}.st111{stroke-linecap:round;stroke-linejoin:round}.st111,.st112{fill:none}.st113,.st114{fill:none;stroke-linecap:round;stroke-linejoin:round;stroke-miterlimit:10}.st113{opacity:.15;stroke:#467398}.st114{stroke:#6ca5c5}
    </style>
    <g id="Layer_1">
        <path class="st56"
              d="M121.4 39.5c-2.1 3.8-1.5 8.7 1.7 11.9 3.9 3.9 10.3 3.9 14.2 0 .2-.2.5-.5.7-.8-.5.8-1 1.6-1.7 2.3-3.9 3.9-10.3 3.9-14.2 0-3.7-3.7-4-9.5-.7-13.4z"/>
        <ellipse transform="rotate(-45.001 129.14 45.812)" class="st87" cx="129.1" cy="45.8" rx="10" ry="10"/>
        <path class="st86" d="M121.7 36c-.4.3-.9.7-1.3 1.1-4.8 4.8-4.8 12.6 0 17.4s12.6 4.8 17.4 0c.4-.4.8-.8 1.1-1.3"/>
        <ellipse transform="rotate(-45.001 129.14 45.812)" class="st106" cx="129.1" cy="45.8" rx="6" ry="10"/>
        <path class="st106" d="M119 35.6L139.3 56m-3.1-17.3L122 52.9"/>
        <path transform="rotate(-180 129.14 59.655)" class="st87" d="M128.2 58.1h1.8v3.1h-1.8z"/>
        <path class="st87" d="M123.3 63.1c3.5-2.5 8.2-2.5 11.6 0v2.5h-11.6v-2.5z"/>
        <path transform="rotate(-180 129.14 64.493)" class="st72" d="M123.3 63.4h11.6v2.2h-11.6z"/>
        <path transform="rotate(-180 129.14 64.493)" class="st86" d="M123.3 63.4h11.6v2.2h-11.6z"/>
    </g>
    <g id="Layer_3">
        <path class="st56" d="M79.9 43.3c1.1 0 2-.9 2-2V5c0-1.1-.9-.2-2-.2L28.1 7.7c-.7 1-1.2 2.3-1.2 3.7v31.9h53z"/>
        <path class="st86" d="M26.9 61.2H113V11.4c0-3.5-2.9-6.4-6.4-6.4H33.3c-3.5 0-6.4 2.9-6.4 6.4v49.8z"/>
        <path class="st86" d="M26.9 61.2H113V11.4c0-3.5-2.9-6.4-6.4-6.4H33.3c-3.5 0-6.4 2.9-6.4 6.4v49.8z"/>
        <path class="st86" d="M110.1 61.2H29.9V12.4c0-.6.4-1 1-1h78.3c.6 0 1 .4 1 1v48.8z"/>
        <path class="st87"
              d="M125.8 66.7H14.2c-2.3 0-4.2-1.9-4.2-4.2v-.2c0-.6.5-1.1 1.1-1.1H129c.6 0 1.1.5 1.1 1.1v.2c-.1 2.3-2 4.2-4.3 4.2z"/>
        <path class="st86" d="M58 61.2c.7 1.4 2.1 2.4 3.7 2.4h16.5c1.6 0 3.1-1 3.7-2.4H58z"/>
        <circle class="st86" cx="70" cy="8.3" r="1.3"/>
        <path class="st87"
              d="M76.9 37.3H18.5c-1.1 0-2-.9-2-2V3.7c0-1.1.9-2 2-2h58.4c1.1 0 2 .9 2 2v31.6c0 1.1-.9 2-2 2z"/>
        <path class="st72"
              d="M47.7 9.5c4.4 0 8 3.6 8 8s-3.6 8-8 8-8-3.6-8-8 3.6-8 8-8m0-1c-5 0-9 4-9 9s4 9 9 9 9-4 9-9-4-9-9-9z"/>
        <circle class="st112" cx="47.7" cy="17.5" r="5"/>
        <path class="st72"
              d="M46.2 21.6c-.3 0-.5-.1-.8-.2-.5-.3-.8-.8-.8-1.3v-5.2c0-.5.3-1 .8-1.3.5-.3 1-.3 1.5 0l4.5 2.6c.5.3.8.8.8 1.3s-.3 1-.8 1.3L47 21.4c-.3.1-.5.2-.8.2zm0-7.2c-.1 0-.2 0-.3.1-.1 0-.2.2-.2.4v5.2c0 .3.2.4.2.4.1 0 .3.1.5 0l4.5-2.6c.2-.1.2-.3.2-.4s0-.3-.2-.4l-4.5-2.6c0-.1-.1-.1-.2-.1z"/>
        <path class="st113" d="M21.5 33.1h52.9"/>
        <path class="st114" d="M21.5 33.1h10.6"/>
    </g>
</svg>